# xmcd
#
# Track frame offsets:
#	150
#	16635
#	29590
#	40087
#	62382
#	76120
#	88647
#	104295
#	116357
#	129515
#	140607
#	154162
#	168990
#	187992
#	200092
#	212670
#	225070
#	251962
#
# Disc length: 3566
#
# Revision: 1
# Processed by: cddbd v1.5.1PL0 Copyright (c) Steve Scherf et al.
# Submitted via: CDex 1.51
# Normalized: r0:TDELIM( - )
#
DISCID=e00dec12
DTITLE=Various Artist - Swing Jazz
DYEAR=2000
DGENRE=Jazz
TTITLE0=Wyne Bartlet - Hey Lady
TTITLE1=Susan Marline - They Can't Take That Away From me
TTITLE2=Louis Armstrong - What A wonderful World
TTITLE3=Rod McRoman - Mamy Summers Ago
TTITLE4=Now he dances now she dances - Shall we dance?
TTITLE5=Nat King Cole - Let There Be Love
TTITLE6=Frank Sina - New York, New York
TTITLE7=The Platters - Smoke Gets In Your Eyes
TTITLE8=Mac Bolton - When A Man Loves A Woman
TTITLE9=Louis Armstrong - Hello Dolly
TTITLE10=Ben E.King - Stand by me
TTITLE11=Natalia - As Times Go By
TTITLE12=Ray Charles - I Can't Stop Loving You
TTITLE13=Brenda Lee - If You Love Me (Really Love Me)
TTITLE14=Harry Connick II - It Has To Be You
TTITLE15=Tony Bennett - Are You Having Any Fun?
TTITLE16=Susan Marline - Love Dance
TTITLE17=Nat King Cole - Unforgettable
EXTD=YEAR: 2000
EXTT0=
EXTT1=
EXTT2=
EXTT3=
EXTT4=
EXTT5=
EXTT6=
EXTT7=
EXTT8=
EXTT9=
EXTT10=
EXTT11=
EXTT12=
EXTT13=
EXTT14=
EXTT15=
EXTT16=
EXTT17=
PLAYORDER=
